<svg xmlns="http://www.w3.org/2000/svg" xmlns:xlink="http://www.w3.org/1999/xlink" viewBox="65 165 260 40" preserveAspectRatio="xMidYMid meet"><g fill="currentColor" fill-opacity="1"><g transform="translate(72.817042, 199.906672)"><g><path d="M 2.453125 0 L 2.453125 -29.109375 L 10.65625 -29.109375 L 10.65625 -18.15625 L 21.078125 -18.15625 L 21.078125 -29.109375 L 29.28125 -29.109375 L 29.28125 0 L 21.078125 0 L 21.078125 -11.0625 L 10.65625 -11.0625 L 10.65625 0 Z M 2.453125 0 "/></g></g></g><g fill="currentColor" fill-opacity="1"><g transform="translate(107.415007, 199.906672)"><g><path d="M -1.59375 0 L 11.234375 -29.109375 L 18.046875 -29.109375 L 30.421875 0 L 22.140625 0 L 20.09375 -5.203125 L 8.8125 -5.203125 L 6.6875 0 Z M 11.609375 -11.96875 L 17.390625 -11.96875 L 14.5625 -19.109375 Z M 11.609375 -11.96875 "/></g></g></g><g fill="currentColor" fill-opacity="1"><g transform="translate(139.266493, 199.906672)"><g><path d="M 28.125 -7.546875 L 30.015625 -1.234375 C 29.359375 -0.710938 28.484375 -0.296875 27.390625 0.015625 C 26.296875 0.328125 25.1875 0.484375 24.0625 0.484375 C 21.90625 0.484375 20.113281 0.0859375 18.6875 -0.703125 C 17.269531 -1.492188 16.125 -2.613281 15.25 -4.0625 L 12.546875 -8.609375 C 12.210938 -9.160156 11.894531 -9.570312 11.59375 -9.84375 C 11.300781 -10.113281 10.9375 -10.289062 10.5 -10.375 L 10.5 0 L 2.453125 0 L 2.453125 -29.109375 L 12.296875 -29.109375 C 16.785156 -29.109375 20.097656 -28.257812 22.234375 -26.5625 C 24.378906 -24.875 25.453125 -22.523438 25.453125 -19.515625 C 25.453125 -17.378906 24.835938 -15.609375 23.609375 -14.203125 C 22.378906 -12.796875 20.753906 -11.804688 18.734375 -11.234375 C 19.773438 -10.898438 20.597656 -10.285156 21.203125 -9.390625 L 21.9375 -8.28125 C 22.613281 -7.21875 23.664062 -6.6875 25.09375 -6.6875 C 25.613281 -6.6875 26.125 -6.742188 26.625 -6.859375 C 27.132812 -6.984375 27.632812 -7.210938 28.125 -7.546875 Z M 12.21875 -22.515625 L 10.5 -22.515625 L 10.5 -16.734375 L 12.59375 -16.734375 C 14.363281 -16.734375 15.597656 -16.96875 16.296875 -17.4375 C 16.992188 -17.914062 17.34375 -18.664062 17.34375 -19.6875 C 17.34375 -20.769531 16.867188 -21.507812 15.921875 -21.90625 C 14.984375 -22.3125 13.75 -22.515625 12.21875 -22.515625 Z M 12.21875 -22.515625 "/></g></g></g><g fill="currentColor" fill-opacity="1"><g transform="translate(170.257138, 199.906672)"><g><path d="M 2.453125 0 L 2.453125 -29.109375 L 10.65625 -29.109375 L 10.65625 0 Z M 2.453125 0 "/></g></g></g><g fill="currentColor" fill-opacity="1"><g transform="translate(186.244647, 199.906672)"><g><path d="M 23.703125 -22.09375 L 10.53125 -22.09375 L 10.53125 -18.125 L 22.625 -18.125 L 22.625 -11.109375 L 10.53125 -11.109375 L 10.53125 -7.015625 L 24.03125 -7.015625 L 23.53125 0 L 2.453125 0 L 2.453125 -29.109375 L 23.703125 -29.109375 Z M 23.703125 -22.09375 "/></g></g></g><g fill="currentColor" fill-opacity="1"><g transform="translate(213.504998, 199.906672)"><g><path d="M 26.359375 -29.109375 L 25.171875 -21.96875 L 16.640625 -21.96875 L 16.640625 0 L 8.453125 0 L 8.453125 -21.96875 L -0.65625 -21.96875 L -0.65625 -29.109375 Z M 26.359375 -29.109375 "/></g></g></g><g fill="currentColor" fill-opacity="1"><g transform="translate(241.421233, 199.906672)"><g><path d="M 6.4375 0.453125 C 4.851562 0.453125 3.601562 -0.015625 2.6875 -0.953125 C 1.769531 -1.898438 1.3125 -3.070312 1.3125 -4.46875 C 1.3125 -5.882812 1.769531 -7.066406 2.6875 -8.015625 C 3.601562 -8.960938 4.851562 -9.4375 6.4375 -9.4375 C 8.019531 -9.4375 9.273438 -8.960938 10.203125 -8.015625 C 11.140625 -7.066406 11.609375 -5.882812 11.609375 -4.46875 C 11.609375 -3.070312 11.140625 -1.898438 10.203125 -0.953125 C 9.273438 -0.015625 8.019531 0.453125 6.4375 0.453125 Z M 6.4375 0.453125 "/></g></g></g><g fill="currentColor" fill-opacity="1"><g transform="translate(257.203779, 199.906672)"><g><path d="M -1.59375 0 L 11.234375 -29.109375 L 18.046875 -29.109375 L 30.421875 0 L 22.140625 0 L 20.09375 -5.203125 L 8.8125 -5.203125 L 6.6875 0 Z M 11.609375 -11.96875 L 17.390625 -11.96875 L 14.5625 -19.109375 Z M 11.609375 -11.96875 "/></g></g></g><g fill="currentColor" fill-opacity="1"><g transform="translate(289.055271, 199.906672)"><g><path d="M 2.453125 0 L 2.453125 -29.109375 L 10.65625 -29.109375 L 10.65625 0 Z M 2.453125 0 "/></g></g></g></svg>
